<svg width="975" height="754" viewBox="0 0 975 754" fill="none" xmlns="http://www.w3.org/2000/svg">
<path d="M532.816 519.019L452.14 520.917L456.885 540.849C456.885 540.849 452.14 552.238 444.547 553.188C436.954 554.137 424.615 549.391 420.818 543.696C417.022 538.001 423.666 518.07 423.666 518.07H352.481V471.562L356.277 469.664C356.277 469.664 370.514 476.308 380.006 473.46C389.497 470.613 391.395 459.223 391.395 459.223C391.395 459.223 392.344 449.732 383.802 442.139C375.26 434.546 354.379 444.037 354.379 444.037V380.445L425.564 379.496C425.564 379.496 419.869 376.649 418.92 365.259C417.971 353.87 422.717 349.124 439.801 345.327C456.885 341.531 454.987 361.463 454.987 361.463L453.089 378.547H468.275L469.224 388.987L472.072 393.733L477.766 397.53L483.461 402.275H490.105L492.003 406.072L498.647 400.377L503.393 401.326L514.783 390.886L520.477 379.496H528.07L529.969 442.139L526.172 440.241C526.172 440.241 506.24 435.495 501.495 435.495C496.749 435.495 491.054 447.834 491.054 447.834C491.054 447.834 494.851 464.918 504.342 471.562C513.833 478.206 529.969 466.816 529.969 466.816L532.816 519.019ZM899.182 649.999C899.182 649.999 898.232 653.796 893.487 656.643C888.741 659.49 884.944 657.592 877.351 652.846C869.758 648.101 883.046 631.966 883.046 631.966L853.921 607.123L850.776 604.441L845.081 620.576L831.793 634.813L830.844 627.22C830.844 627.22 823.251 622.474 818.505 622.474C813.759 622.474 797.624 626.271 795.726 642.406C793.828 658.541 811.861 666.134 811.861 666.134L791.929 693.659L822.302 710.744C822.302 710.744 822.302 710.744 825.149 705.998C827.997 701.252 839.386 702.201 846.03 705.049C852.674 707.896 842.233 728.777 842.233 728.777L872.606 743.963L888.741 722.133C888.741 722.133 876.402 722.133 871.657 719.286C866.911 716.438 855.521 705.998 855.521 705.998L859.318 699.354L856.47 693.659L860.267 690.812L864.064 687.964L868.809 685.117L872.606 683.219L882.097 680.371L898.232 692.71L909.622 696.507L933.35 671.829L899.182 649.999ZM189.23 547.493C182.586 541.798 162.654 548.442 162.654 548.442L142.722 509.527L109.503 534.205L119.943 542.747L116.147 558.882C116.147 558.882 106.655 570.272 96.2149 574.068C85.7744 577.865 75.334 553.188 75.334 553.188L33.5721 578.814L67.7409 634.813L87.6727 615.83L84.8253 610.136C84.8253 610.136 83.8762 594.949 88.6218 590.204C93.3675 585.458 96.2149 606.339 96.2149 606.339L100.961 594L108.554 578.814L118.045 584.509L121.841 587.356L126.587 592.102L130.384 595.899L132.282 603.492L135.129 607.288L137.028 617.729L115.198 633.864L109.503 644.304L85.7744 674.677L86.7236 678.473L90.5201 682.27L123.74 661.389L130.384 672.778C130.384 672.778 143.672 673.727 150.315 667.083C156.959 660.44 149.366 645.253 149.366 645.253L196.823 615.83L175.942 584.509L183.535 582.611C183.535 582.611 194.925 577.865 196.823 568.374C198.721 558.882 195.874 553.187 189.23 547.493ZM740.676 105.197C742.575 98.5528 740.676 92.858 730.236 86.2141C719.795 79.5701 715.05 91.9089 715.05 91.9089L697.016 47.2996L579.324 92.858L596.408 136.518C596.408 136.518 583.12 144.111 583.12 147.908C583.12 151.704 594.51 164.992 594.51 164.992L608.747 163.094L628.679 208.652L664.746 194.415L669.491 195.364C669.491 195.364 674.237 207.703 678.033 210.55C681.83 213.398 693.22 212.449 693.22 212.449C693.22 212.449 693.22 202.957 693.22 199.161C693.22 195.364 688.474 181.127 688.474 181.127L699.864 183.975L701.762 179.229L706.507 178.28L712.202 176.382L718.846 174.483L743.524 163.094L727.388 117.535C727.388 117.535 738.778 111.841 740.676 105.197ZM340.14 32.1154L323.688 90.3295L340.14 92.8599L351.53 105.516C351.53 105.516 348.999 119.436 338.874 129.561C328.749 139.686 316.095 128.295 316.095 128.295L302.175 154.871L309.768 156.137H317.361L316.095 173.853L312.298 187.773L348.998 202.959C348.998 202.959 357.857 190.304 361.653 187.773C365.45 185.243 379.37 183.977 386.963 186.507C394.556 189.037 389.493 211.817 389.493 211.817L470.487 237.126L486.939 182.709L474.283 176.382L469.22 158.665C469.22 158.665 476.813 143.479 486.937 140.949C497.06 138.418 510.982 151.072 510.982 151.072L535.028 95.3903L348.998 29.5831L340.14 32.1154Z" fill="#AADCF2"/>
<path d="M532.816 519.019L452.14 520.917L456.885 540.849C456.885 540.849 452.14 552.238 444.547 553.188C436.954 554.137 424.615 549.391 420.818 543.696C417.022 538.001 423.666 518.07 423.666 518.07H352.481V471.562L356.277 469.664C356.277 469.664 370.514 476.308 380.006 473.46C389.497 470.613 391.395 459.223 391.395 459.223C391.395 459.223 392.344 449.732 383.802 442.139C375.26 434.546 354.379 444.037 354.379 444.037V380.445L425.564 379.496C425.564 379.496 419.869 376.649 418.92 365.259C417.971 353.87 422.717 349.124 439.801 345.327C456.885 341.531 454.987 361.463 454.987 361.463L453.089 378.547H468.275L469.224 388.987L472.072 393.733L477.766 397.53L483.461 402.275H490.105L492.003 406.072L498.647 400.377L503.393 401.326L514.783 390.886L520.477 379.496H528.07L529.969 442.139L526.172 440.241C526.172 440.241 506.24 435.495 501.495 435.495C496.749 435.495 491.054 447.834 491.054 447.834C491.054 447.834 494.851 464.918 504.342 471.562C513.833 478.206 529.969 466.816 529.969 466.816L532.816 519.019ZM899.182 649.999C899.182 649.999 898.232 653.796 893.487 656.643C888.741 659.49 884.944 657.592 877.351 652.846C869.758 648.101 883.046 631.966 883.046 631.966L853.921 607.123L850.776 604.441L845.081 620.576L831.793 634.813L830.844 627.22C830.844 627.22 823.251 622.474 818.505 622.474C813.76 622.474 797.624 626.271 795.726 642.406C793.828 658.541 811.861 666.134 811.861 666.134L791.929 693.659L822.302 710.744C822.302 710.744 822.302 710.744 825.149 705.998C827.997 701.252 839.386 702.201 846.03 705.049C852.674 707.896 842.233 728.777 842.233 728.777L872.606 743.963L888.741 722.133C888.741 722.133 876.402 722.133 871.657 719.286C866.911 716.438 855.521 705.998 855.521 705.998L859.318 699.354L856.471 693.659L860.267 690.812L864.064 687.964L868.809 685.117L872.606 683.219L882.097 680.371L898.232 692.71L909.622 696.507L933.35 671.829L899.182 649.999ZM740.676 105.197C742.575 98.5528 740.676 92.858 730.236 86.2141C719.795 79.5701 715.05 91.9089 715.05 91.9089L697.016 47.2996L579.324 92.858L596.408 136.518C596.408 136.518 583.12 144.111 583.12 147.908C583.12 151.704 594.51 164.992 594.51 164.992L608.747 163.094L628.679 208.652L664.746 194.415L669.491 195.364C669.491 195.364 674.237 207.703 678.033 210.55C681.83 213.398 693.22 212.449 693.22 212.449C693.22 212.449 693.22 202.957 693.22 199.161C693.22 195.364 688.474 181.127 688.474 181.127L699.864 183.975L701.762 179.229L706.507 178.28L712.202 176.382L718.846 174.483L743.524 163.094L727.388 117.535C727.388 117.535 738.778 111.841 740.676 105.197ZM340.14 32.1154L323.688 90.3295L340.14 92.8599L351.53 105.516C351.53 105.516 348.999 119.436 338.874 129.561C328.749 139.686 316.095 128.295 316.095 128.295L302.175 154.871L309.768 156.137H317.361L316.095 173.853L312.298 187.773L348.998 202.959C348.998 202.959 357.857 190.304 361.653 187.773C365.45 185.243 379.37 183.977 386.963 186.507C394.556 189.037 389.493 211.817 389.493 211.817L470.487 237.126L486.939 182.709L474.283 176.382L469.22 158.665C469.22 158.665 476.813 143.479 486.937 140.949C497.06 138.418 510.982 151.072 510.982 151.072L535.028 95.3903L348.998 29.5831L340.14 32.1154Z" fill="#D8F2DF"/>
<path d="M532.816 519.019L452.14 520.917L456.885 540.849C456.885 540.849 452.14 552.238 444.547 553.188C436.954 554.137 424.615 549.391 420.818 543.696C417.022 538.001 423.666 518.07 423.666 518.07H352.481V471.562L356.277 469.664C356.277 469.664 370.514 476.308 380.006 473.46C389.497 470.613 391.395 459.223 391.395 459.223C391.395 459.223 392.344 449.732 383.802 442.139C375.26 434.546 354.379 444.037 354.379 444.037V380.445L425.564 379.496C425.564 379.496 419.869 376.649 418.92 365.259C417.971 353.87 422.717 349.124 439.801 345.327C456.885 341.531 454.987 361.463 454.987 361.463L453.089 378.547H468.275L469.224 388.987L472.072 393.733L477.766 397.53L483.461 402.275H490.105L492.003 406.072L498.647 400.377L503.393 401.326L514.783 390.886L520.477 379.496H528.07L529.969 442.139L526.172 440.241C526.172 440.241 506.24 435.495 501.495 435.495C496.749 435.495 491.054 447.834 491.054 447.834C491.054 447.834 494.851 464.918 504.342 471.562C513.833 478.206 529.969 466.816 529.969 466.816L532.816 519.019ZM899.182 649.999C899.182 649.999 898.232 653.796 893.487 656.643C888.741 659.49 884.944 657.592 877.351 652.846C869.758 648.101 883.046 631.966 883.046 631.966L853.921 607.123L850.776 604.441L845.081 620.576L831.793 634.813L830.844 627.22C830.844 627.22 823.251 622.474 818.505 622.474C813.76 622.474 797.624 626.271 795.726 642.406C793.828 658.541 811.861 666.134 811.861 666.134L791.929 693.659L822.302 710.744C822.302 710.744 822.302 710.744 825.149 705.998C827.997 701.252 839.386 702.201 846.03 705.049C852.674 707.896 842.233 728.777 842.233 728.777L872.606 743.963L888.741 722.133C888.741 722.133 876.402 722.133 871.657 719.286C866.911 716.438 855.521 705.998 855.521 705.998L859.318 699.354L856.471 693.659L860.267 690.812L864.064 687.964L868.809 685.117L872.606 683.219L882.097 680.371L898.232 692.71L909.622 696.507L933.35 671.829L899.182 649.999ZM340.14 32.1154L323.688 90.3295L340.14 92.8599L351.53 105.516C351.53 105.516 348.999 119.436 338.874 129.561C328.749 139.686 316.095 128.295 316.095 128.295L302.175 154.871L309.768 156.137H317.361L316.095 173.853L312.298 187.773L348.998 202.959C348.998 202.959 357.857 190.304 361.653 187.773C365.45 185.243 379.37 183.977 386.963 186.507C394.556 189.037 389.493 211.817 389.493 211.817L470.487 237.126L486.939 182.709L474.283 176.382L469.22 158.665C469.22 158.665 476.813 143.479 486.937 140.949C497.06 138.418 510.982 151.072 510.982 151.072L535.028 95.3903L348.998 29.5831L340.14 32.1154Z" fill="#FBC02D"/>
<path d="M532.816 519.019L452.14 520.917L456.885 540.849C456.885 540.849 452.14 552.238 444.547 553.188C436.954 554.137 424.615 549.391 420.818 543.696C417.022 538.001 423.666 518.07 423.666 518.07H352.481V471.562L356.277 469.664C356.277 469.664 370.514 476.308 380.006 473.46C389.497 470.613 391.395 459.223 391.395 459.223C391.395 459.223 392.344 449.732 383.802 442.139C375.26 434.546 354.379 444.037 354.379 444.037V380.445L425.564 379.496C425.564 379.496 419.869 376.649 418.92 365.259C417.971 353.87 422.717 349.124 439.801 345.327C456.885 341.531 454.987 361.463 454.987 361.463L453.089 378.547H468.275L469.224 388.987L472.072 393.733L477.766 397.53L483.461 402.275H490.105L492.003 406.072L498.647 400.377L503.393 401.326L514.783 390.886L520.477 379.496H528.07L529.969 442.139L526.172 440.241C526.172 440.241 506.24 435.495 501.495 435.495C496.749 435.495 491.054 447.834 491.054 447.834C491.054 447.834 494.851 464.918 504.342 471.562C513.833 478.206 529.969 466.816 529.969 466.816L532.816 519.019Z" fill="black"/>
<path d="M860.533 520.3C858.902 522.692 856.852 524.888 855.554 527.493C853.99 530.629 855.136 532.314 858.591 532.694C859.848 532.832 858.183 533.81 857.87 533.947C856.71 534.459 855.315 534.837 854.037 534.696C851.22 534.387 848.295 533.174 849.567 529.843C850.782 526.665 853.234 524.114 855.127 521.338C855.738 520.442 857.405 520.112 858.375 519.926C858.515 519.898 861.038 519.558 860.533 520.3ZM872.059 543.387C878.253 544.233 883.677 540.408 884.865 534.279C885.423 531.39 879.779 532.007 879.273 534.626C878.739 537.384 876.856 539.558 873.901 539.156C872.564 538.973 870.903 539.579 870.332 540.889C869.774 542.164 870.841 543.222 872.059 543.387ZM852.744 517.946C853.591 517.787 855.548 517.428 855.988 516.519C856.93 514.577 857.579 512.502 858.261 510.459C858.547 509.598 856.419 509.994 856.093 510.057C855.364 510.196 853.145 510.598 852.849 511.484C852.167 513.527 851.518 515.602 850.577 517.544C850.178 518.37 852.509 517.992 852.744 517.946ZM875.262 517.126C873.832 518.597 872.805 520.302 871.894 522.126C871.298 523.32 872.407 524.062 873.494 524.15C874.723 524.248 876.497 523.74 877.095 522.54C877.843 521.046 878.614 519.655 879.785 518.449C880.647 517.563 880.326 516.428 879.151 516.082C877.849 515.702 876.203 516.156 875.262 517.126ZM873.379 507.815C875.962 507.853 878.789 508.335 881.013 509.723C882.071 510.382 883.527 510.074 884.616 509.639C884.958 509.503 887.177 508.314 886.15 507.675C883.005 505.714 879.269 505.089 875.607 505.036C874.407 505.019 872.743 505.492 871.959 506.467C871.137 507.492 872.661 507.806 873.379 507.815ZM970.509 682.431C970.439 682.448 970.37 682.469 970.3 682.48C967.878 682.896 965.431 683.143 962.975 683.321C964.628 703.151 974.613 736.093 953.744 748.189C944.163 753.741 930.919 752.28 922.409 745.552C916.27 740.698 911.344 734.658 905.615 729.367C901.192 725.284 897.817 723.452 892.348 722.763C892.314 722.82 892.297 722.872 892.255 722.93C887.608 729.438 882.447 735.571 878.62 742.625C878.454 742.929 878.175 743.183 877.836 743.399C876.626 744.343 874.136 744.882 873.094 743.912C872.097 742.984 867.794 741.325 865.88 740.387C861.657 738.316 857.429 736.251 853.228 734.134C851.296 733.16 838.502 728.331 839.153 725.235C839.244 724.796 839.549 724.417 839.965 724.105C844.443 719.846 847.763 712.754 843.075 707.298C839.658 703.323 834.992 700.411 830.237 704.458C827.733 706.59 825.647 709.067 823.619 711.643C823.226 712.143 822.076 712.537 820.948 712.716C819.794 713.481 817.98 713.862 817.051 713.19C807.702 706.417 797.218 701.085 789.397 692.412C788.325 691.222 790.031 689.942 791.814 689.587C796.708 681.332 801.951 673.289 806.806 665.005C803.055 664.711 799.889 663.19 797.393 660.886C797.159 661.252 796.901 661.692 796.622 662.23C795.601 664.192 794.602 666.165 793.657 668.164C790.941 673.91 788.372 679.73 786.032 685.639C779.369 702.463 773.904 719.684 770.426 737.458C770.147 738.884 766.335 739.772 765.232 738.959C763.6 739.806 760.94 739.745 760.94 737.925C760.94 710.064 760.94 682.203 760.94 654.344C750.978 654.344 741.016 654.344 731.054 654.344C727.609 654.344 728.374 651.113 730.91 650.601C736.014 641.039 738.674 625.375 726.396 620.726C715.807 616.717 704.771 623.319 703.656 634.504C703.009 641.001 704.742 646.85 708.455 652.182C710.196 652.759 707.003 655.092 705.249 655.092C698.381 655.092 691.515 655.092 684.647 655.092C683.89 655.781 682.217 656.533 681.301 656.533C679.197 656.533 677.096 656.533 674.993 656.533C674.993 667.042 674.993 677.551 674.993 688.057C674.993 688.576 674.529 689.014 673.878 689.354C673.971 690.744 669.677 692.213 668.548 690.992C664.178 686.265 658.599 685.774 654.476 691.203C651.838 694.677 649.634 699.584 650.824 704.048C652.346 709.77 662.1 722.536 666.849 713.196C667.022 712.855 667.434 712.558 667.948 712.323C668.823 710.861 673.288 710.239 673.288 711.351C673.288 721.955 673.288 732.56 673.288 743.166C673.288 744.977 667.789 745.873 667.789 744.639C667.789 735.757 667.789 726.873 667.789 717.991C659.22 723.407 645.154 714.496 645.065 703.735C644.962 691.284 658.557 679.747 669.493 685.599C669.493 675.91 669.493 666.222 669.493 656.531C650.154 656.531 630.812 656.531 611.473 656.531C620.442 672.18 612.555 694.128 592.598 694.409C572.164 694.698 567.951 671.732 575.719 656.531C561.112 656.531 546.503 656.531 531.896 656.531C530.58 657.717 526.854 658.148 526.854 657.148C526.854 656.897 526.854 656.647 526.854 656.396C526.318 656.206 526.425 655.834 526.854 655.436C526.854 646.916 526.854 638.395 526.854 629.877C526.854 621.546 526.854 613.213 526.854 604.881C526.854 603.083 532.353 602.193 532.353 603.408C532.353 603.473 532.353 603.535 532.353 603.6C533.568 603.108 534.997 602.791 535.605 603.22C542.104 607.774 552.105 610.878 558.722 604.627C563.693 599.929 566.019 592.774 564.684 585.99C561.751 571.071 545.905 570.678 535.109 578.064C534.257 578.647 529.648 579.351 530.502 578.319C528.906 578.875 526.854 578.922 526.854 578.18C526.854 559.239 526.854 540.3 526.854 521.361C503.207 521.361 479.558 521.361 455.912 521.361C463.007 534.75 460.711 552.273 442.806 554.38C434.495 555.355 424.919 553.337 420.399 545.515C415.587 537.181 416.872 527.589 422.102 519.837C401.004 519.837 379.905 519.837 358.808 519.837C358.453 520.636 357.513 521.348 356.236 521.397C356.236 521.466 356.236 521.534 356.236 521.602C356.236 521.944 356.034 522.253 355.712 522.521C355.712 541.72 355.712 560.921 355.712 580.118C355.712 581.736 351.27 582.613 350.378 581.889C349.132 582.419 347.604 582.789 346.959 582.349C341.759 578.793 335.064 575.75 328.587 576.485C320.463 577.404 316.924 585.851 317.648 593.184C319.132 608.224 334.373 616.675 347.454 607.506C348.094 607.057 350.894 606.533 351.854 606.758C353.476 606.13 355.71 606.047 355.71 606.821C355.71 622.527 355.71 638.232 355.71 653.938C356.021 653.938 356.331 653.938 356.64 653.938C360.381 653.938 359.163 657.757 356.097 657.757C355.968 657.757 355.839 657.757 355.71 657.757C355.71 658.201 355.71 658.646 355.71 659.09C355.71 660.888 350.211 661.778 350.211 660.563C350.211 659.627 350.211 658.693 350.211 657.757C323.008 657.757 295.808 657.757 268.608 657.757C265.163 657.757 265.928 654.526 268.464 654.014C273.568 644.452 276.226 628.788 263.95 624.139C253.363 620.13 242.324 626.732 241.21 637.917C240.563 644.414 242.298 650.263 246.007 655.593C247.748 656.17 244.555 658.503 242.801 658.503C220.68 658.503 198.56 658.503 176.441 658.503C175.261 660.009 171.234 660.436 171.234 658.194C171.234 649.544 171.234 640.895 171.234 632.245C164.598 635.726 157.956 639.206 151.582 643.177C161.777 649.781 158.63 662.486 149.499 669.037C145.295 672.053 139.607 674.379 134.328 673.644C128.525 672.835 124.877 669.016 122.523 664.012C112.912 669.804 102.872 674.847 93.3827 680.842C93.2005 680.958 92.8892 681.064 92.519 681.157C92.1982 682.626 88.3257 683.838 87.1887 682.526C86.2111 681.398 85.6833 679.641 85.1822 678.266C85.0056 677.782 84.8177 677.277 84.6374 676.763C82.2835 678.323 79.8519 679.688 77.3461 680.8C77.4183 690.664 78.1567 700.455 79.6051 710.216C79.9183 712.327 74.3905 713.623 74.1058 711.689C72.6821 702.093 71.9892 692.475 71.8677 682.786C67.2891 684.075 62.5112 684.5 57.57 683.775C42.661 681.59 36.5581 670.907 32.3553 657.412C28.2817 644.329 25.1476 630.029 25.626 616.244C25.6298 616.142 25.6545 616.043 25.6981 615.948C24.8952 616.088 24.0903 616.227 23.2892 616.409C19.4395 617.277 22.323 615.069 24.3731 614.608C33.0805 612.647 41.8334 612.85 50.6793 612.937C44.0544 602.218 37.4674 591.479 32.4446 579.889C31.9624 578.778 33.9005 577.704 35.6298 577.54C35.3869 577.295 35.59 576.91 36.598 576.36C49.2917 569.425 60.4497 560.118 72.9574 552.88C73.1946 552.743 73.5344 552.631 73.9122 552.544C75.4251 551.713 77.703 551.77 78.0922 553.415C79.7057 560.257 82.7904 569.327 90.5429 571.28C96.4579 572.77 102.658 569.617 107.048 565.847C115.22 558.831 123.296 543.535 109.37 537.882C108.026 537.337 107.922 536.432 108.417 535.621C107.117 535.667 106.145 535.336 106.879 534.448C115.34 524.239 127.293 518.734 137.899 511.221C137.846 511.133 137.789 511.048 137.734 510.961C137.314 510.285 141.304 508.548 142.798 509.153C144.361 509.127 145.615 509.546 144.186 510.611C144.133 510.651 144.076 510.691 144.023 510.731C151.749 523.03 160.428 534.818 166.204 548.188C167.671 546.925 169.376 545.887 171.246 545.088C171.293 541.984 171.523 537.673 171.331 534.93C171.252 534.79 171.157 534.662 171.124 534.465C171.084 534.237 171.065 534.004 171.035 533.774C170.991 533.778 170.988 533.708 171.01 533.594C170.498 529.567 171.046 525.074 171.046 521.099C171.046 519.45 174.317 518.466 175.83 519.294C176.155 519.19 176.47 519.125 176.751 519.119C168.239 513.726 160.329 507.379 150.283 504.958C129.977 500.061 114.398 509.698 97.1185 518.55C96.9704 518.626 96.699 518.707 96.3687 518.785C96.2852 519.816 96.3402 520.925 96.568 522.136C97.3748 526.414 98.658 530.551 99.6584 534.784C99.9887 534.949 100.161 535.213 100.049 535.604C95.0399 552.861 68.597 550.093 60.5446 536.737C60.0852 536.974 59.6125 537.179 59.1456 537.4C59.3999 537.794 59.3297 538.326 58.6862 538.992C50.1459 547.815 36.1044 555.175 31.8314 567.21C26.7574 581.5 30.1496 597.459 28.1241 612.248C27.8014 614.61 22.1958 615.415 22.5641 612.719C24.6123 597.759 19.618 577.958 27.6761 564.414C33.6215 554.421 43.1944 547.937 51.4747 540.086C40.3281 542.853 27.79 541.826 16.6662 541.006C15.4057 542.187 12.097 542.749 11.6092 541.259C0.0506425 505.942 -8.98321 454.176 21.0986 424.99C47.6687 399.212 86.7824 410.136 106.676 438.318C107.398 439.341 106.076 440.362 104.573 440.81C104.442 441.309 103.992 441.805 103.079 442.192C101.382 442.91 99.7552 443.756 98.1625 444.669C107.343 456.647 119.271 475.943 115.401 491.572C113.664 498.582 108.823 502.931 103.654 507.703C100.628 510.495 97.8493 513.087 96.7863 516.574C111.864 508.705 126.016 500.911 143.738 501.255C158.909 501.547 170.232 509.981 182.472 517.654C182.772 517.842 181.57 518.603 180.215 519.123C187.789 519.123 195.361 519.123 202.935 519.123C208.575 506.543 205.13 487.204 199.942 475.087C196.931 468.056 183.771 450.626 192.077 443.756C196.646 439.979 201.407 443.58 205.155 448.043C203.953 439.307 202.655 428.301 212.497 427.974C213.68 427.934 214.644 428.394 215.437 429.149C216.601 426.864 218.243 424.971 221.02 424.286C224.644 423.392 226.356 425.231 227.552 428.504C227.636 428.733 227.708 428.984 227.789 429.216C228.444 427.505 229.447 426.034 231.189 425.377C234.589 424.094 236.273 425.738 237.283 428.842C237.983 430.987 238.553 433.181 239.042 435.404C253.154 426.604 253.391 451.497 253.139 460.007C252.896 468.174 252.127 475.102 248.494 482.568C247.579 484.449 246.692 486.27 245.842 488.06C249.494 485.949 253.695 484.789 258.147 484.351C278.94 482.299 281.554 503.443 273.388 517.599C298.995 517.599 324.601 517.599 350.207 517.599C350.207 517.534 350.207 517.47 350.207 517.403C350.207 517.062 350.408 516.752 350.731 516.485C350.731 501.26 350.731 486.04 350.731 470.818C350.731 469.02 356.23 468.13 356.23 469.345C356.23 469.409 356.23 469.472 356.23 469.537C357.445 469.045 358.874 468.728 359.484 469.157C365.983 473.713 375.983 476.816 382.601 470.564C387.572 465.865 389.898 458.713 388.563 451.926C385.63 437.01 369.784 436.615 358.988 444.001C358.136 444.584 353.525 445.288 354.381 444.256C352.783 444.812 350.731 444.859 350.731 444.117C350.731 422.718 350.731 401.321 350.731 379.921C350.731 379.69 350.824 379.475 350.981 379.278C350.864 379.295 350.753 379.304 350.653 379.304C327.376 379.304 304.1 379.304 280.823 379.304C289.791 394.954 281.905 416.902 261.949 417.182C241.514 417.471 237.304 394.506 245.071 379.304C225.354 379.304 205.637 379.304 185.919 379.304C185.918 379.304 185.916 379.304 185.912 379.304C184.562 380.417 180.906 380.821 180.906 379.923C180.906 367.803 180.906 355.682 180.906 343.564C180.906 341.844 186.405 340.99 186.405 342.091C186.405 353.809 186.405 365.529 186.405 377.247C187.056 376.956 187.734 376.751 188.209 376.751C207.655 376.751 227.1 376.751 246.546 376.751C246.649 376.594 246.742 376.43 246.846 376.275C247.736 374.952 252.617 374.762 252.264 375.284C251.954 375.743 251.666 376.25 251.375 376.751C251.522 376.751 251.668 376.751 251.814 376.751C255.136 376.751 251.981 378.824 250.09 379.232C245.064 390.201 244.475 407.526 256.59 413.221C266.954 418.094 276.666 411.043 278.657 400.59C280.14 392.805 278.585 385.297 274.075 378.788C273.849 378.464 275.379 377.6 276.901 377.163C277.494 376.918 278.088 376.751 278.517 376.751C302.965 376.751 327.414 376.751 351.862 376.751C351.862 360.009 351.862 343.264 351.862 326.521C351.862 324.724 357.361 323.833 357.361 325.048C357.361 325.113 357.361 325.175 357.361 325.24C358.576 324.748 360.006 324.431 360.615 324.86C367.115 329.416 377.115 332.52 383.732 326.267C388.704 321.569 391.029 314.416 389.694 307.63C386.762 292.711 370.915 292.318 360.12 299.704C359.267 300.287 354.664 300.99 355.511 299.961C353.912 300.517 351.862 300.564 351.862 299.822C351.862 276.663 351.862 253.504 351.862 230.346C334.204 230.287 316.547 230.015 298.891 229.989C289.576 248.457 275.538 264.841 264.494 282.345C255.776 296.16 247.209 310.01 235.269 321.301C218.456 337.203 187.82 355.094 171.31 330.062C159.999 318.64 154.964 299.543 149.501 285.327C141.608 264.782 131.534 241.995 129.873 219.808C128.413 200.296 137.561 189.036 153.127 178.517C168.605 168.06 185.365 159.66 202.52 152.327C202.899 152.166 203.606 152.042 204.334 151.979C204.534 151.522 205.067 151.095 205.745 150.778C205.124 148.118 204.718 145.36 204.416 142.574C203.273 143.109 201.829 143.509 201.132 143.316C180.897 137.697 162.768 119.4 154.795 100.178C149.45 87.2904 145.217 69.4125 161.417 63.1577C161.483 63.133 161.549 63.1159 161.616 63.0932C161.016 62.8976 160.562 62.48 160.452 61.7834C158.233 47.5881 168.133 41.06 180.519 37.4932C190.733 34.5489 200.697 31.4491 209.357 24.9912C216.081 19.976 222.004 13.9945 228.777 9.04194C239.137 1.46596 254.024 -5.06598 262.664 8.60913C266.894 15.3024 260.696 22.5329 254.591 28.5998C261.529 25.0861 269.36 22.6544 276.476 24.0819C287.885 26.3712 292.412 36.5782 283.636 45.3235C277.773 51.1683 270.548 55.2267 262.877 58.3114C267.173 68.9227 271.799 79.7542 273.72 91.0736C274.984 98.5205 276.52 107.402 272.666 114.42C266.22 126.163 252.505 132.966 255.542 147.519C256.3 146.928 257.326 146.461 258.166 146.471C273.439 146.666 289.677 150.053 304.76 146.573C308.255 138.72 312.948 129.772 314.263 128.092C315.22 126.869 317.758 126.22 319.237 126.547C319.244 126.547 319.252 126.548 319.259 126.55C319.55 126.613 319.69 126.748 319.688 126.989C319.903 127.067 320.102 127.165 320.262 127.306C332.183 137.826 345.56 129.517 348.574 115.347C352.094 98.7958 339.525 91.0186 324.25 92.3967C322.456 92.5581 321.849 91.8063 322.012 90.9464C321.315 90.8895 320.877 90.6693 321.063 90.2497C329.383 71.4171 333.331 51.0866 340.757 31.9217C340.772 31.88 340.805 31.842 340.827 31.8021C340.991 30.5778 342.785 29.2224 344.453 29.5565C354.708 31.6085 364.93 36.0486 374.85 39.2718C396.356 46.2574 417.851 53.2659 439.346 60.2856C460.6 67.2276 481.855 74.1733 503.097 81.1514C510.058 83.4369 517.021 85.7224 523.978 88.0307C525.914 88.6723 529.601 89.1279 531.201 90.5459C531.56 90.8648 531.736 91.1951 531.795 91.5216C533.547 90.8477 536.136 90.7984 535.776 91.8063C528.845 111.155 518.558 129.122 512.518 148.806C512.364 149.307 511.715 149.726 510.916 150.019C509.701 150.992 507.193 151.503 506.187 150.459C501.155 145.235 493.203 138.564 485.272 141.049C479.587 142.83 475.608 148.208 473.617 153.612C468.907 166.395 474.147 180.776 489.397 180.6C490.415 180.588 491.047 180.85 491.381 181.234C492.315 181.141 493.017 181.274 492.909 181.784C490.213 194.423 484.475 207.143 480.079 219.262C478.131 224.63 475.483 241.301 466.967 240.108C466.261 240.01 467.005 239.469 468.101 238.956C467.689 239.066 467.277 239.176 466.865 239.286C467.243 239.009 467.58 238.586 467.903 238.111C465.927 237.935 463.801 237.189 462.305 236.813C455.209 235.029 448.18 232.971 441.179 230.845C432.493 228.206 423.81 225.499 415.179 222.642C415.167 222.787 415.11 222.95 414.964 223.145C401.859 240.676 383.656 273.801 357.365 259.017C357.365 272.126 357.365 285.238 357.365 298.347C357.365 298.484 357.323 298.615 357.265 298.74C370.845 290.496 397.699 288.377 395.427 311.415C393.569 330.257 372.187 336.554 357.363 327.934C357.363 344.79 357.363 361.647 357.363 378.501C357.792 378.338 358.217 378.236 358.58 378.236C379.476 378.236 400.372 378.236 421.268 378.236C416.91 370.967 415.393 361.153 420.431 353.792C424.993 347.125 432.109 344.236 439.94 343.465C460.684 341.419 463.334 362.454 455.242 376.609C458.641 376.609 462.043 376.609 465.443 376.609C465.449 376.58 465.454 376.552 465.46 376.525C467.292 369.08 473.795 365.109 481.314 366.677C483.087 367.047 478.239 369.27 476.84 368.978C473.167 368.211 470.933 372.549 470.471 377.53C470.777 378.046 470.72 378.697 470.388 379.27C470.352 383.086 471.339 386.972 473.505 389.027C473.492 388.319 473.501 387.613 473.554 386.922C474.372 376.455 480.439 365.195 492.507 366.88C494.729 367.19 494.619 368.771 493.573 369.9C498.594 366.717 504.416 367.562 509.619 370.838C509.838 370.975 509.984 371.123 510.102 371.273C513.837 369.494 517.564 368.974 521.115 369.667C525.908 358.849 534.088 353.655 543.467 350.215C531.465 348.161 523.033 338.719 521.345 325.618C519.149 308.575 530.098 295.804 542.759 285.965C545.677 269.873 557.936 255.057 565.381 241.075C562.454 238.117 560.119 234.455 558.654 229.97C555.802 221.236 561.264 213.774 570.144 211.758C577.873 210.002 582.501 212.652 587.424 216.94C587.877 216.648 588.449 216.458 589.13 216.469C611.357 216.813 640.226 225.216 651.988 245.951C659.584 259.345 655.75 270.86 655.835 285.354C655.928 301.014 667.811 311.272 673.983 324.627C674.224 324.718 674.378 324.855 674.378 325.05C674.378 325.115 674.378 325.177 674.378 325.242C675.592 324.75 677.022 324.433 677.631 324.862C684.131 329.418 694.131 332.522 700.748 326.269C705.72 321.571 708.045 314.418 706.711 307.632C703.78 292.713 687.931 292.32 677.136 299.706C676.283 300.289 671.68 300.991 672.527 299.963C670.928 300.519 668.878 300.566 668.878 299.824C668.878 276.153 668.878 252.481 668.878 228.81C668.878 227.846 670.461 227.147 671.929 226.889C672.83 225.782 675.97 224.862 677.066 225.851C676.272 225.133 680.832 225.818 682.227 225.864C684.059 225.923 685.892 225.947 687.724 225.989C689.203 221.921 691.113 217.703 692.35 213.423C681.699 215.913 670.659 206.462 666.68 195.968C666.604 195.998 666.542 196.029 666.458 196.057C654.626 200.251 644.034 207.261 631.651 209.93C628.821 210.539 627.936 208.872 629.909 207.948C628.457 208.698 626.205 208.702 625.556 207.221C619.383 193.124 614.146 178.637 607.376 164.802C607.318 164.683 607.285 164.565 607.262 164.447C598.789 169.933 587.596 167.76 582.105 158.238C579.559 153.821 578.088 148.542 580.246 143.657C582.697 138.118 589.031 135.971 594.586 135.237C594.705 135.222 594.802 135.22 594.91 135.21C588.889 121.366 583.718 107.167 577.074 93.5945C577.036 93.5167 577.025 93.4445 577.002 93.3686C574.523 93.4882 574.231 91.5482 577.239 90.9237C585.26 89.2589 593.117 85.673 600.732 82.7554C613.071 78.0287 625.353 73.1483 637.62 68.2375C657.067 60.4508 676.367 51.7226 696.202 44.9571C698.317 44.2358 701.303 45.333 699.101 46.4777C699.142 46.5422 699.194 46.5991 699.228 46.6713C705.39 59.2606 710.289 72.3909 715.771 85.2763C718.822 82.6643 722.54 81.064 726.884 81.6107C732.656 82.3359 736.961 87.091 739.562 91.9525C742.206 96.8918 743.729 103.272 741.707 108.699C739.68 114.143 734.458 116.698 729.002 117.243C729.217 117.412 729.401 117.617 729.528 117.877C736.297 131.712 741.534 146.197 747.708 160.296C748.209 161.439 747.151 162.399 745.819 162.796C745.57 163.014 745.141 163.24 744.471 163.46C735.34 166.478 727.202 171.718 718.322 175.309C718.6 175.471 718.862 175.666 719.127 175.852C719.325 175.812 719.528 175.767 719.704 175.767C719.877 175.767 720.052 175.767 720.224 175.767C720.555 175.767 720.832 175.807 721.088 175.862C725.9 174.707 731.72 176.858 735.31 179.88C739.892 183.736 741.291 190.738 741.178 196.429C741.107 199.933 740.697 203.314 739.76 206.695C739.811 206.509 742.924 208.781 743.716 209.863C746.948 214.277 741.962 221.555 739.029 225.685C748.664 225.291 759.01 225.873 763.761 232.316C770.437 241.371 768.169 257.303 768.144 267.62C768.103 285.498 768.004 303.378 767.88 321.255C767.787 334.915 767.653 348.575 767.655 362.235C767.655 364.536 766.326 376.747 767.899 378.169C767.898 378.169 767.894 378.169 767.892 378.169C768.247 378.479 768.26 378.963 767.62 379.667C767.6 379.688 767.581 379.709 767.562 379.732C766.645 380.738 764.27 381.294 763.028 380.487C754.203 380.487 745.378 380.487 736.553 380.487C743.647 393.876 741.35 411.398 723.448 413.504C715.139 414.479 705.56 412.463 701.041 404.641C696.228 396.309 697.514 386.717 702.743 378.963C696.079 378.963 689.412 378.963 682.745 378.963C682.21 379.172 681.682 379.312 681.293 379.312C679.19 379.312 677.088 379.312 674.985 379.312C674.985 399.669 674.985 420.024 674.985 440.381C674.985 441.998 670.543 442.875 669.651 442.152C668.406 442.682 666.878 443.052 666.232 442.612C661.033 439.056 654.338 436.013 647.859 436.748C639.734 437.667 636.196 446.114 636.919 453.447C638.403 468.487 653.645 476.938 666.728 467.769C667.367 467.319 670.167 466.796 671.128 467.021C672.749 466.393 674.983 466.31 674.983 467.084C674.983 483.369 674.983 499.655 674.983 515.94C674.983 524.461 674.983 532.984 674.983 541.506C674.983 556.656 674.983 571.804 674.983 586.954C674.983 588.571 670.547 589.446 669.651 588.725C668.406 589.256 666.876 589.627 666.23 589.184C661.031 585.629 654.336 582.586 647.857 583.321C639.732 584.239 636.194 592.687 636.917 600.02C638.402 615.06 653.645 623.511 666.726 614.34C667.365 613.89 670.165 613.366 671.126 613.592C672.747 612.964 674.981 612.88 674.981 613.655C674.981 626.732 674.981 639.809 674.981 652.886C675.722 652.425 676.61 652.074 677.289 652.074C685.498 652.074 693.706 652.074 701.914 652.074C697.555 644.805 696.039 634.99 701.077 627.628C703.368 624.28 706.304 621.888 709.651 620.234C705.002 617.605 700.558 614.602 696.314 611.366C692.926 608.782 687.954 605.663 686.942 601.153C686.223 597.945 687.963 596.274 690.9 595.348C691.097 595.285 691.293 595.272 691.489 595.23C689.854 592.582 689.446 589.845 691.669 587.425C693.497 585.433 695.71 584.583 697.963 584.566C697.254 582.049 697.641 579.64 699.972 577.599C702.563 575.333 705.071 574.999 707.424 575.788C707.514 573.309 708.778 571.278 711.897 570.126C717.711 567.981 722.263 571.84 725.87 576.098C728.531 579.239 731.576 582.93 733.571 586.853C735.674 582.614 738.133 578.712 741.747 576.333C745.365 573.949 754.23 573.237 753.97 579.583C753.513 590.794 745.676 598.82 747.567 610.942C748.981 620.01 753.67 624.819 759.137 631.66C759.82 632.516 760.454 633.353 761.049 634.192C764.006 630.642 766.552 626.778 769.526 623.237C767.189 621.309 764.836 619.401 762.423 617.567C762.142 617.355 763.004 616.762 764.116 616.274C764.029 616.049 764.076 615.764 764.338 615.405C786.024 585.585 823.24 550.34 861.475 571.213C862.072 565.071 860.14 560.526 853.189 557.235C848.033 554.793 843.507 552.333 840.77 547.113C838.031 541.887 837.621 535.653 838.509 529.15C820.402 533.913 831.427 492.938 835.51 485.006C835.599 484.833 835.73 484.681 835.88 484.535C829.048 487.025 815.787 490.613 818.577 480.919C821.746 469.914 836.311 467.439 846.841 464.95C838.612 463.969 826.153 460.592 833.498 453.324C841.03 445.871 854.597 446.224 865.759 446.672C862.676 444.981 860.096 442.564 859.851 438.855C859.555 434.386 864.392 431.615 867.931 430.296C880.182 425.727 893.956 431.18 903.95 439.331C903.87 433.384 906.222 427.629 913.367 428.342C922.496 429.254 926.528 439.819 927.646 448.54C934.398 443.229 945.101 440.412 950.061 449.014C952.212 452.746 952.31 457.959 952.593 462.13C952.87 466.222 952.961 470.319 952.99 474.419C957.677 472.321 962.891 472.824 965.051 479.339C968.216 488.891 962.358 497.739 955.315 504.188C955.308 504.201 955.3 504.212 955.292 504.224C958.837 503.829 961.737 504.934 960.853 509.799C959.583 516.798 953.706 522.176 947.251 524.776C955.332 525.448 966.255 528.671 959.186 537.658C954.311 543.856 947.728 545.139 940.79 545.657C942.667 546.726 943.973 548.415 943.901 551.139C943.793 555.179 939.905 559.228 936.678 561.2C924.797 568.465 913.536 563.977 901.978 559.414C901.07 564.376 900.457 569.418 899.499 574.344C899.884 574.458 900.081 574.661 899.937 574.976C899.907 575.042 899.861 575.111 899.831 575.177C920.763 576.77 945.275 584.691 955.355 604.359C967.21 627.491 973.873 654.76 974.947 680.7C975 681.681 972.117 682.403 970.509 682.431ZM413.1 221.936C404.438 219.04 395.837 215.966 387.341 212.642C385.75 212.766 384.178 212.192 384.687 210.991C384.493 210.139 385.429 209.159 386.6 208.643C390.065 204.453 393.085 198.812 390.551 193.468C388.001 188.094 382.384 185.277 376.598 184.857C363.962 183.942 358.214 191.036 352.925 201.401C352.175 202.87 348.988 203.358 347.878 202.46C347.363 202.54 346.9 202.54 346.589 202.415C335.816 198.058 325.231 193.257 314.481 188.848C314.442 190.064 314.4 191.277 314.347 192.485C313.743 206.175 311.463 218.144 299.373 226.139C314.787 226.162 330.201 226.373 345.615 226.466C342.773 220.034 339.675 213.445 334.108 208.994C332.864 208.001 337.876 205.862 339.248 206.959C345.404 211.879 348.662 219.419 351.777 226.492C353.398 226.498 355.021 226.513 356.644 226.515C359.806 226.519 359.423 229.248 357.375 230.093C357.375 238.857 357.375 247.62 357.375 256.384C358.559 255.818 360.148 255.518 360.85 255.94C383.474 269.547 398.689 238.102 409.883 223.128C410.351 222.496 411.823 222.044 413.1 221.936ZM272.759 212.145C272.754 212.251 272.725 212.356 272.68 212.458C280.434 216.828 287.651 222.331 295.895 225.682C313.957 213.005 305.89 189.265 311.695 170.932C312.894 167.141 314.574 162.976 314.711 158.973C314.901 153.481 311.158 157.129 309.745 160.227C306.222 167.961 304.1 176.761 303.825 185.273C303.779 186.735 298.304 187.371 298.325 186.746C298.561 179.411 300.026 165.596 305.575 158.667C305.005 158.585 304.46 158.546 303.946 158.559C302.974 158.923 301.89 159.168 301.29 159.081C295.48 161.511 294.441 171.387 293.98 177.342C293.834 179.231 288.297 180.302 288.475 178.014C288.95 171.868 289.897 165.171 293.898 160.229C294.316 159.715 294.772 159.263 295.242 158.836C292.758 157.2 291.059 156.414 289.122 159.09C287.708 161.047 286.698 163.267 285.869 165.529C284.364 169.637 283.407 173.931 281.835 178.012C281.229 179.584 275.852 180.228 276.377 178.861C276.533 178.46 276.664 178.041 276.808 177.633C276.098 177.593 275.588 177.363 275.599 176.902C275.645 174.745 275.816 172.287 275.085 170.203C275.007 169.859 274.876 169.542 274.732 169.235C272.454 173.517 271.92 178.939 271.958 183.641C272.036 193.153 273.336 202.627 272.759 212.145ZM317.334 131.292C315.322 135.246 312.541 141.173 310.186 146.342C310.607 146.972 310.341 147.891 309.199 148.519C307.915 151.366 306.843 153.808 306.211 155.315C307.154 155.356 308.094 155.455 309.022 155.622C313.718 152.932 321.594 150.328 320.041 158.88C319.202 163.504 317.57 167.858 316.33 172.374C315.142 176.708 314.789 181.209 314.597 185.708C315.497 185.425 316.404 185.302 316.915 185.509C327.595 189.829 338.092 194.584 348.749 198.963C355.655 186.511 365.904 178.233 381.306 181.505C396.904 184.82 400.289 198.043 391.629 209.425C406.754 215.296 422.206 220.372 437.702 225.16C445.025 227.422 452.364 229.66 459.763 231.669C462.064 232.291 464.365 232.925 466.686 233.461C468.752 233.937 470.692 233.333 468.79 234.44C469.11 234.254 469.435 234.133 469.754 234.062C470.367 232.263 470.859 230.452 471.286 229.328C473.719 222.933 476.026 216.488 478.281 210.028C481.216 201.621 485.075 192.912 487.144 184.184C479.566 183.946 471.986 181.401 468.454 174.07C465.073 167.056 465.817 158.394 469.135 151.478C472.482 144.497 478.304 138.842 486.073 137.294C494.653 135.588 502.313 139.842 508.469 145.425C514.469 127.771 523.456 111.321 529.866 93.8128C528.836 94.2133 527.647 94.257 526.945 93.6363C526.691 93.4104 520.434 91.5121 518.443 90.8534C511.368 88.5147 504.289 86.1875 497.209 83.864C476.261 76.9885 455.308 70.1376 434.351 63.2963C413.455 56.4739 392.557 49.6591 371.651 42.869C363.793 40.3178 352.669 35.9935 345.133 34.0383C338.504 52.0586 334.512 70.9634 326.845 88.6078C335.672 88.0819 346.473 89.3101 351.562 97.3948C355.678 103.931 355.609 112.027 352.788 119.077C346.651 134.428 330.613 140.939 317.334 131.292ZM257.592 60.2515C253.712 61.5802 249.771 62.7192 245.882 63.7519C233.133 67.1365 220.054 69.5207 206.859 69.5397C214.608 80.9729 211.394 94.8455 205.999 106.825C205.969 106.892 205.923 106.951 205.885 107.013C206.398 107.594 202.632 109.21 201.59 109.164C193.905 108.832 186.468 113.399 189.634 121.643C192.024 127.866 197.389 131.104 203.129 125.58C203.678 125.053 208.167 123.185 208.38 124.675C209.686 133.842 209.327 144.531 212.467 153.477C220.234 161.188 227.907 169.633 239.675 170.072C251.425 170.507 250.852 161.038 251.339 152.186C251.347 152.029 251.391 151.879 251.449 151.735C251.02 151.651 250.703 151.467 250.605 151.146C246.098 136.522 256.702 130.282 264.365 119.734C276.676 102.786 264.823 77.8104 257.592 60.2515ZM268.319 267.345C276.62 254.435 286.958 242.764 293.849 228.996C281.833 224.871 272.207 215.744 260.455 211.103C238.108 232.346 207.651 245.877 190.781 272.462C189.769 274.059 184.211 274.511 185.637 272.263C191.675 262.745 199.427 254.898 207.903 247.753C207.281 247.779 206.798 247.671 206.669 247.345C201.21 233.631 192.432 221.669 186.975 207.956C186.608 207.035 191.988 205.258 192.474 206.482C197.772 219.787 206.168 231.462 211.65 244.67C226.542 232.732 243.186 222.511 256.785 209.36C257.194 208.485 260.485 207.173 261.636 207.527C263.615 208.134 265.523 208.895 267.387 209.746C267.554 200.81 266.305 191.902 266.51 182.957C266.63 177.739 267.38 171.592 270.85 167.433C272.418 165.554 275.29 164.666 277.64 165.182C278.766 165.429 279.527 166.15 280.051 167.111C281.024 164.294 282.228 161.596 284.084 159.276C288.042 154.33 294.178 153.426 299.462 156.294C300.03 156.082 300.603 155.892 301.195 155.749C301.632 154.219 302.355 152.268 303.249 150.096C287.835 153.082 271.656 150.024 256.115 149.825C256.121 149.975 256.079 150.123 255.983 150.267C256.546 150.506 256.924 150.951 256.884 151.659C256.343 161.473 255.409 173.168 242.979 173.715C228.403 174.356 219.61 167.261 210.229 158.417C209.272 158.563 208.427 158.477 208.184 157.961C207.808 157.164 207.478 156.34 207.17 155.508C206.436 154.806 205.692 154.098 204.938 153.386C187.628 160.812 170.215 169.174 154.983 180.341C147.354 185.936 138.808 192.306 136.46 202.029C134.228 211.27 135.152 220.645 137.312 229.814C141.904 249.3 148.871 268.453 156.263 287.035C161.119 299.236 165.424 314.951 174.253 325.654C174.813 325.747 175.299 325.995 175.581 326.459C176.071 327.264 176.58 328.008 177.096 328.723C178.307 329.91 179.575 331.032 180.952 332.024C181.164 332.178 180.991 332.442 180.606 332.73C199.097 349.997 229.487 324.143 241.913 307.588C251.556 294.74 259.644 280.838 268.319 267.345ZM94.4002 536.828C94.3053 536.68 94.2255 536.519 94.18 536.327C92.6766 529.953 88.1587 520.226 92.1317 513.844C95.9074 507.781 102.297 504.21 106.576 498.584C116.433 485.621 106.061 465.469 96.8964 452.251C96.3022 453.069 94.6128 453.453 93.7453 453.582C92.2988 453.794 91.1826 455.474 90.5448 456.683C90.0607 457.604 88.1966 457.959 87.3045 458.126C87.0862 458.166 84.6943 458.527 85.1309 457.697C87.0121 454.121 90.9491 452.279 94.8102 451.708C94.926 451.691 95.841 451.558 96.4636 451.626C95.4442 450.172 94.4438 448.809 93.4928 447.555C91.0099 449.182 88.5592 450.867 86.0383 452.407C83.9787 453.665 81.8128 452.219 82.2684 450.603C78.1225 446.376 74.0887 442.076 69.4721 438.432C70.4763 444.732 73.0447 450.863 75.0606 456.83C75.6966 458.713 72.5037 460.045 70.6718 459.373C70.3359 459.675 69.9068 459.96 69.2937 460.167C63.7033 462.052 58.3559 464.301 53.6064 467.824C57.1239 488.468 61.5773 508.914 69.3791 528.413C69.5443 528.827 69.5006 529.214 69.3241 529.564C69.4475 529.843 69.3355 530.22 68.8305 530.722C67.6897 531.853 66.4805 532.84 65.239 533.764C70.1555 544.146 89.9165 550.503 94.4002 536.828ZM669.493 439.544C669.493 426.835 669.493 414.122 669.493 401.414C669.123 401.332 668.88 401.176 668.88 400.926C668.88 393.714 668.88 386.501 668.88 379.289C649.744 379.289 630.607 379.289 611.471 379.289C620.44 394.939 612.553 416.886 592.596 417.167C572.162 417.456 567.951 394.491 575.717 379.289C561.467 379.289 547.215 379.289 532.962 379.289C532.962 399.644 532.962 420.003 532.962 440.358C532.962 441.976 528.52 442.853 527.628 442.129C526.383 442.659 524.855 443.029 524.209 442.589C519.01 439.033 512.315 435.99 505.836 436.725C497.712 437.644 494.173 446.089 494.896 453.424C496.381 468.462 511.622 476.915 524.705 467.747C525.345 467.297 528.145 466.773 529.105 466.999C530.726 466.37 532.961 466.287 532.961 467.061C532.961 483.538 532.961 500.013 532.961 516.49C547.706 516.49 562.45 516.49 577.194 516.49C577.295 516.333 577.389 516.171 577.494 516.016C578.384 514.693 583.265 514.503 582.913 515.025C582.604 515.484 582.317 515.989 582.025 516.49C582.171 516.49 582.317 516.49 582.462 516.49C585.784 516.49 582.629 518.561 580.738 518.971C575.709 529.939 575.123 547.267 587.236 552.96C597.6 557.833 607.314 550.784 609.303 540.331C610.784 532.544 609.231 525.036 604.721 518.527C604.495 518.203 606.025 517.337 607.549 516.9C608.139 516.655 608.735 516.49 609.163 516.49C629.271 516.49 649.377 516.49 669.486 516.49C669.486 500.592 669.486 484.694 669.486 468.794C653.092 478.963 628.944 472.673 631.651 449.639C633.815 431.309 657.2 432.617 669.493 439.544ZM587.866 336.871C588.122 336.945 588.331 337.064 588.458 337.241C597.659 350.17 613.76 352.651 626.788 343.826C624.417 342.205 622.638 340.244 621.376 338.046C614.592 330.327 611.871 320.602 617.352 309.192C617.722 308.423 618.681 307.926 619.692 307.727C625.702 302.172 634.835 293.095 621.61 290.682C617.473 289.926 614.032 288.592 611.756 284.776C605.717 274.659 604.379 261.077 608.115 249.896C608.155 249.774 608.215 249.659 608.286 249.547C595.601 252.639 579.897 251.878 569.212 244.305C562.243 256.289 550.814 270.576 547.983 284.83C548.631 285.264 548.737 285.984 547.64 286.882C547.146 290.45 547.22 294.01 548.092 297.523C548.19 297.918 548.306 298.29 548.42 298.664C549.84 301.785 552.093 305.321 555.59 308.169C563.188 312.933 574.624 312.588 583.918 314.35C585.366 313.089 588.287 312.894 588.639 314.801C589.927 321.812 588.12 328.52 587.217 335.447C587.788 335.787 588.092 336.284 587.866 336.871ZM621.414 312.63C621.498 312.402 621.583 312.178 621.67 311.954C621.583 312.18 621.496 312.406 621.414 312.63ZM693.087 210.475C693.823 206.822 693.88 203.142 692.563 199.491C691.128 195.518 682.272 184.187 686.796 180.117C689.653 177.545 692.777 177.486 695.818 178.829C696.063 177.367 696.832 176.163 698.721 175.51C701.726 174.47 704.184 174.778 706.749 176.649C706.98 176.818 707.206 177.006 707.434 177.181C707.417 177.086 707.383 176.997 707.369 176.9C707.181 175.541 708.544 174.776 709.655 174.43C711.555 173.838 713.267 173.756 714.841 174.024C724.207 170.469 732.662 164.895 742.193 161.7C736.028 147.619 730.796 133.149 724.034 119.331C723.537 118.316 724.372 117.433 725.542 116.985C724.137 116.087 725.502 113.826 727.848 113.777C738.294 113.551 738.438 102.683 734.921 95.1359C733.193 91.4305 730.456 87.4878 726.597 85.766C722.707 84.0329 719.759 86.4134 717.499 89.3747C717.719 90.4377 716.627 91.2995 715.325 91.626C713.336 92.4802 710.055 92.2335 711.31 90.3675C711.417 90.2099 711.529 90.0561 711.639 89.9005C705.623 76.0906 700.462 61.9238 693.854 48.3759C674.909 55.1224 656.397 63.4197 637.745 70.8723C619.996 77.9623 601.397 87.4061 582.606 92.1518C589.364 105.969 594.595 120.438 600.761 134.519C601.581 136.391 598.23 137.777 596.325 136.987C595.816 137.613 594.903 138.19 593.861 138.329C573.627 141.002 592.312 175.157 606.404 160.537C607.695 159.199 613.086 159.149 610.829 161.49C610.6 161.727 610.355 161.928 610.117 162.15C611.26 162.04 612.411 162.348 612.881 163.306C619.651 177.141 624.89 191.627 631.061 205.725C631.45 206.615 630.896 207.394 630.004 207.883C630.29 207.758 630.626 207.646 631.027 207.561C642.878 205.008 653.06 198.181 664.395 194.165C664.909 193.982 665.475 193.912 666.008 193.924C665.9 193.553 665.799 193.181 665.71 192.809C665.311 191.122 670.826 189.708 671.209 191.336C672.935 198.645 683.782 214.877 693.087 210.475ZM699.374 177.181C698.206 176.714 698.594 177.097 699.401 177.194C699.391 177.19 699.383 177.185 699.374 177.181ZM692.732 226.082C692.969 226.086 693.208 226.094 693.448 226.097C703.852 226.259 714.258 226.336 724.663 226.388C727.09 226.399 730.063 226.192 733.273 225.983C733.347 225.801 733.444 225.611 733.588 225.404C736.197 221.676 743.119 212.563 735.029 209.768C734.019 209.419 733.691 208.677 734.014 207.703C735.585 202.967 736.221 197.244 735.259 192.335C734.676 189.354 733.886 186.08 731.756 183.775C730.249 182.145 725.762 178.804 722.709 179.201C725.659 182.762 727.93 187.405 730.069 190.898C731.489 193.216 726.202 195.184 725.012 193.24C722.789 189.611 718.797 179.732 713.592 177.974C713.918 178.87 714.251 179.764 714.384 180.725C714.484 181.452 714.07 182.077 713.436 182.543C716.329 185.524 718.968 188.81 721.198 192.088C721.529 192.572 716.555 194.821 715.699 193.561C712.81 189.315 709.235 185.328 705.505 181.811C704.213 180.59 702.804 179.22 701.246 178.193C701.232 179.294 701.329 180.381 701.504 181.482C701.547 181.763 701.291 182.039 700.877 182.289C705.887 186.877 710.017 193.922 711.35 197.39C711.692 198.28 706.299 200.034 705.851 198.863C703.457 192.633 699.452 186.484 693.742 182.798C692.848 182.221 691.923 181.6 690.93 181.179C691.006 181.338 691.067 181.515 691.101 181.722C691.523 184.377 692.656 186.706 693.93 189.058C697.09 194.888 700.312 201.391 698.806 208.216C698.793 208.28 698.772 208.343 698.759 208.407C699.86 208.474 700.5 208.871 699.402 209.787C698.996 210.127 698.584 210.442 698.172 210.737C696.714 215.945 694.454 220.953 692.732 226.082ZM674.943 328.234C674.816 328.484 674.621 328.712 674.381 328.907C674.381 342.224 674.381 355.538 674.381 368.853C674.753 368.934 674.995 369.09 674.995 369.34C674.995 371.797 674.995 374.255 674.995 376.711C675.735 376.25 676.623 375.899 677.303 375.899C687.339 375.899 697.377 375.899 707.413 375.899C709.27 375.899 709.232 376.658 708.478 377.418C708.487 377.44 708.491 377.463 708.472 377.49C700.651 388.65 701.973 408.302 718.197 411.127C738.596 414.677 737.125 392.317 730.175 380.367C727.565 379.796 728.812 376.647 731.601 376.647C741.66 376.647 751.717 376.647 761.776 376.647C761.616 373.479 762.174 369.342 762.17 367.818C762.132 356.316 762.231 344.815 762.309 333.313C762.432 315.249 762.561 297.185 762.62 279.122C762.662 266.367 766.115 247.584 759.409 235.769C755.033 228.06 746.62 229.645 739.131 229.628C729.834 229.607 720.536 229.573 711.238 229.501C701.665 229.427 692.088 229.372 682.517 229.097C680.708 229.045 677.048 229.48 674.385 228.992C674.385 252.105 674.385 275.217 674.385 298.33C674.385 298.467 674.345 298.598 674.285 298.723C687.865 290.481 714.721 288.358 712.449 311.398C710.61 329.999 689.74 336.375 674.943 328.234ZM525.861 371.349C527.788 372.38 529.627 373.803 531.349 375.612C532.254 375.563 532.964 375.724 532.964 376.159C532.964 376.351 532.964 376.541 532.964 376.732C547.708 376.732 562.452 376.732 577.198 376.732C577.3 376.575 577.393 376.411 577.498 376.256C578.388 374.933 583.268 374.743 582.917 375.265C582.608 375.724 582.319 376.231 582.029 376.732C582.175 376.732 582.321 376.732 582.467 376.732C585.789 376.732 582.634 378.805 580.744 379.213C575.717 390.182 575.129 407.507 587.243 413.202C597.608 418.075 607.321 411.024 609.311 400.571C610.791 392.786 609.239 385.278 604.728 378.769C604.502 378.445 606.032 377.581 607.555 377.144C608.147 376.899 608.741 376.732 609.17 376.732C629.073 376.732 648.977 376.732 668.882 376.732C668.882 370.61 668.882 364.487 668.882 358.365C657.498 357.932 642.031 353.543 630.48 345.83C630.192 345.707 629.888 345.593 629.613 345.46C614.833 354.747 595.032 354.836 583.842 339.934C564.396 351.371 535.557 347.594 525.861 371.349ZM512.006 372.831C509.183 374.929 506.918 377.771 505.587 381.043C503.98 384.997 502.759 390.377 503.372 395.163C503.534 395.388 503.598 395.669 503.494 396.021C503.788 397.664 504.316 399.221 505.143 400.603C506.218 402.395 505.603 402.152 506.178 401.533C506.971 400.679 507.727 399.806 508.368 398.824C509.644 396.877 510.804 394.853 511.772 392.735C513.733 388.443 515.371 383.955 516.022 379.265C513.376 379.005 517.271 376.734 518.862 376.734C521.045 376.734 523.228 376.734 525.411 376.734C524.238 375.553 522.839 374.314 521.309 373.329C521.019 373.23 520.774 373.084 520.59 372.892C517.873 371.337 514.832 370.728 512.006 372.831ZM494.627 374.621C491.996 378.691 490.916 383.638 490.684 388.433C490.504 392.152 490.422 397.336 492.717 400.535C493.385 401.465 493.892 401.353 493.494 401.626C495.511 400.242 496.838 398.016 498.057 395.948C498.063 395.939 498.072 395.929 498.08 395.92C497.18 388.042 499.676 379.13 505.694 374.044C505.574 374.001 505.46 373.951 505.356 373.887C501.567 371.499 497.423 370.297 494.627 374.621ZM484.054 397.144C484.446 396.871 484.9 396.713 485.369 396.639C484.999 394.145 484.999 391.575 485.098 389.502C485.392 383.391 486.827 375.631 491.647 371.334C491.882 371.125 492.121 370.939 492.358 370.749C491.831 370.986 491.244 371.108 490.652 371.026C482.804 369.931 479.707 379.356 479.217 385.639C479.035 387.983 479.15 400.567 484.054 397.144ZM237.564 519.11C238.201 519.11 238.841 519.11 239.479 519.11C238.801 517.98 238.2 516.788 237.674 515.554C237.605 516.714 237.562 517.893 237.564 519.11ZM220.075 426.56C219.435 426.036 219.526 426.402 220.075 426.56V426.56ZM208.364 519.11C216.256 519.11 224.145 519.11 232.036 519.11C232.064 509.928 233.412 501.232 237.674 492.995C241.153 486.268 246.094 479.132 246.913 471.46C247.315 467.678 247.748 433.811 241.647 438.08C241.119 438.449 240.405 438.621 239.699 438.64C240.8 444.667 241.387 450.844 242.091 456.832C242.311 458.694 236.776 459.882 236.592 458.305C235.728 450.972 234.862 443.593 233.342 436.363C233.053 434.992 232.79 433.475 232.406 432.004C232.222 432.86 232.049 433.718 231.892 434.582C231.772 435.241 230.846 435.785 229.788 436.097C231.413 443.103 232.114 450.825 231.297 457.399C231.091 459.075 225.711 459.575 225.798 458.872C226.706 451.552 225.348 443.274 223.786 436.137C223.256 433.716 222.719 429.981 221.115 427.693C220.141 429.656 219.42 431.704 218.761 433.792C218.685 434.031 218.459 434.248 218.152 434.44C218.594 436.015 218.868 437.553 219.059 438.621C219.965 443.675 220.758 449.259 219.934 454.385C219.633 456.264 214.086 457.232 214.435 455.07C215.05 451.234 214.617 447.084 214.069 443.263C213.594 439.964 213.182 434.719 210.846 431.97C210.724 432.239 210.62 432.519 210.549 432.813C210.318 433.743 210.117 434.669 210.056 435.628C209.893 438.139 210.016 440.643 210.28 443.141C210.694 447.05 211.525 451.011 211.417 454.952C211.407 455.32 211.166 455.66 210.802 455.951C210.882 456.067 210.959 456.182 211.032 456.289C214.236 460.918 219.173 462.355 222.962 466.228C226.958 470.313 227.484 475.093 227.351 480.613C227.296 482.912 221.732 483.84 221.797 481.105C221.971 473.944 220.212 469.704 214.133 465.951C210.658 463.804 208.247 462.059 205.976 458.639C204.427 456.306 202.96 453.857 201.21 451.668C201.531 452.069 193.97 444.462 195.079 449.269C196.233 454.271 198.461 458.872 200.697 463.468C208.266 479.043 215.851 501.936 208.364 519.11ZM71.8829 680.688C72.2075 679.635 74.2501 678.883 75.744 679.012C78.5515 677.6 81.3059 675.787 83.9692 673.669C84.0318 672.628 85.2543 671.841 86.5395 671.508C97.8683 661.514 107.312 646.744 112.016 637.188C112.356 636.501 113.74 636.047 115.031 635.865C114.831 635.618 114.941 635.263 115.566 634.786C121.752 630.052 142.829 617.096 132.402 608.867C131.153 612.3 129.435 615.479 127.857 617.685C126.992 618.894 121.568 619.615 122.817 617.873C126.49 612.744 131.414 600.931 126.973 595.238C126.46 601.4 123.408 606.96 121.16 612.839C120.245 615.236 114.717 615.149 115.877 612.117C117.608 607.584 120.368 602.977 121.181 598.156C121.599 595.68 121.887 593.049 120.953 590.633C120.338 589.04 117.419 589.496 119.607 588.057C119.323 588.245 119.004 588.376 118.67 588.459C118.284 594.987 115.716 602.821 114.434 605.253C113.613 606.81 108.326 607.294 108.969 606.073C111.285 601.684 116.674 585.287 111.175 581.766C109.091 580.43 105.382 596.269 105.086 597.533C104.146 601.552 103.288 605.675 101.435 609.372C101.485 609.67 101.53 609.961 101.576 610.229C101.781 611.44 98.4207 612.465 96.8546 612.214C95.7783 612.22 95.0247 611.888 95.541 611.03C95.6511 610.847 95.7517 610.654 95.8542 610.464C95.2734 607.176 94.5843 603.892 93.601 600.705C92.7753 598.025 91.2206 591.8 88.1302 590.164C88.2213 590.42 87.7486 590.861 87.5816 591.905C87.3918 593.091 87.2798 594.285 87.2912 595.49C87.312 597.821 87.4582 600.147 87.76 602.461C88.2972 606.593 88.9578 610.787 90.2126 614.771C90.2904 615.018 90.167 615.272 89.9127 615.515C91.1105 615.407 92.0217 615.532 91.4655 616.052C79.6791 627.053 67.8415 637.975 54.7226 647.393C53.7754 648.07 48.278 648.862 50.5161 647.256C55.3452 643.79 59.996 640.103 64.531 636.284C64.4246 636.185 64.3316 636.075 64.2614 635.944C60.3396 628.59 55.9641 621.485 51.5772 614.39C50.6546 614.75 49.6884 615.037 49.2955 615.035C43.2096 615.001 37.1485 614.762 31.1234 615.265C30.8462 625.181 32.5547 635.384 34.8573 644.988C37.2301 654.887 40.1667 668.642 48.1394 675.785C55.8635 682.695 64.0184 683.477 71.8829 680.688ZM145.479 644.506C144.919 644.189 146.428 643.228 148.019 642.715C155.547 638.08 163.457 634.118 171.265 629.988C171.447 628.801 173.315 628.008 174.832 628.072C181.219 624.604 187.476 620.921 193.3 616.499C193.575 616.29 194.143 616.1 194.801 615.948C189.49 604.517 182.351 594.226 175.044 583.991C174.023 582.561 177.451 581.079 179.27 581.403C179.627 581.267 180.002 581.158 180.373 581.107C192.392 579.467 200.272 565.921 194.143 554.917C191.728 550.581 188.809 547.293 183.765 546.179C181.426 545.663 179.006 545.463 176.736 545.76C176.46 547.274 173.431 548.134 171.988 547.345C170.481 548.262 169.177 549.581 168.197 551.405C167.863 552.028 166.684 552.449 165.507 552.654C164.046 553.165 162.265 553.362 161.973 552.612C156.498 538.599 147.597 526.449 139.564 513.836C130.116 520.103 119.805 525.294 112.369 534.019C112.417 534.034 112.468 534.042 112.515 534.059C129.898 541.115 121.225 560.549 109.909 569.146C103.878 573.729 95.9814 577.252 88.2878 575.314C79.1894 573.022 74.9961 564.347 72.853 555.936C61.6779 562.825 51.3987 571.077 39.8478 577.387C39.3315 577.668 38.3634 577.838 37.475 577.867C37.6781 578.004 37.8432 578.178 37.9438 578.408C46.2412 597.55 58.7811 614.397 68.7508 632.651C74.6563 627.501 80.4024 622.157 86.1332 616.806C85.4119 616.819 84.8424 616.662 84.7095 616.24C82.8075 610.196 81.6476 603.296 81.7881 596.96C81.8944 592.184 82.7771 588.659 87.8796 587.571C94.1534 586.234 97.4184 592.284 99.2787 598.801C101.173 589.37 103.068 579.306 113.064 578.75C116.536 578.556 118.098 580.952 118.561 584.387C122.124 583.882 125.841 586.388 126.724 590.077C126.75 590.08 126.781 590.08 126.804 590.086C134.159 591.859 135.076 598.385 133.56 604.965C134.178 604.875 134.744 604.904 135.103 605.109C151.587 614.545 127.69 629.693 119.953 635.614C119.465 635.988 118.425 636.227 117.417 636.292C111.547 648.2 101.828 663.146 89.5558 673.133C89.7608 674.38 90.2544 675.639 90.6815 676.784C90.9339 677.463 91.1826 678.255 91.5072 678.988C101.429 672.93 111.849 667.733 121.682 661.522C121.955 661.349 122.502 661.193 123.132 661.077C124.645 660.381 126.946 660.03 127.324 660.971C129.125 665.466 132.445 670.76 137.84 671.197C141.91 671.525 145.596 668.932 148.163 665.965C154.408 658.752 154.249 649.447 145.479 644.506ZM350.212 579.3C350.212 560.002 350.212 540.703 350.212 521.403C323.01 521.403 295.81 521.403 268.61 521.403C265.164 521.403 265.929 518.172 268.466 517.66C273.57 508.098 276.228 492.434 263.951 487.785C253.365 483.776 242.326 490.378 241.212 501.562C240.565 508.06 242.3 513.909 246.011 519.239C247.75 519.816 244.557 522.149 242.803 522.149C220.724 522.149 198.643 522.149 176.565 522.149C176.498 525.192 176.307 529.146 176.487 531.712C176.567 531.853 176.662 531.98 176.694 532.178C176.734 532.405 176.753 532.639 176.783 532.868C176.827 532.865 176.831 532.935 176.808 533.049C177.231 536.382 176.935 540.029 176.815 543.444C184.304 542.153 192.573 543.983 196.964 549.195C209.224 563.748 196.295 579.955 180.944 582.981C188.347 593.372 195.532 603.856 200.802 615.527C201.398 616.848 197.717 618.273 196.02 617.618C189.879 622.028 183.362 625.775 176.726 629.325C176.745 629.422 176.768 629.517 176.768 629.625C176.768 638.237 176.768 646.85 176.768 655.46C176.774 655.46 176.779 655.46 176.785 655.46C197.681 655.46 218.577 655.46 239.473 655.46C235.115 648.192 233.6 638.376 238.638 631.015C243.198 624.348 250.316 621.459 258.147 620.686C278.942 618.634 281.554 639.779 273.39 653.934C298.995 653.934 324.601 653.934 350.207 653.934C350.207 638.807 350.207 623.68 350.207 608.55C333.811 618.719 309.667 612.429 312.374 589.395C314.533 571.067 337.919 572.375 350.212 579.3ZM449.522 521.261C446.914 520.687 448.161 517.54 450.95 517.54C476.252 517.54 501.552 517.54 526.852 517.54C526.852 516.354 526.852 515.167 526.852 513.981C526.852 513.611 527.093 513.282 527.463 512.999C527.463 498.263 527.463 483.527 527.463 468.791C511.068 478.96 486.922 472.669 489.629 449.635C491.783 431.309 515.17 432.617 527.463 439.542C527.463 419.457 527.463 399.371 527.463 379.285C525.413 379.285 523.363 379.285 521.313 379.285C520.126 386.879 516.658 396.017 511.185 401.222C508.114 404.143 501.687 406.751 499.475 401.723C496.669 404.798 492.998 407.141 489.378 404.601C488.008 403.638 487.087 402.224 486.43 400.624C479.355 404.631 475.153 399.322 473.905 392.788C473.452 392.898 473.049 392.947 472.789 392.906C466.988 391.941 464.841 386.072 464.951 380.612C460.113 380.612 455.274 380.612 450.437 380.612C446.95 380.612 447.662 377.101 450.333 376.637C455.393 367.066 457.973 351.52 445.748 346.89C435.162 342.881 424.123 349.483 423.011 360.667C422.364 367.165 424.099 373.012 427.81 378.342C429.549 378.919 426.356 381.252 424.602 381.252C402.193 381.252 379.784 381.252 357.373 381.252C357.373 387.317 357.373 393.384 357.373 399.449C357.373 399.973 356.898 400.417 356.236 400.757C356.236 414.713 356.236 428.669 356.236 442.625C356.236 442.763 356.194 442.894 356.133 443.02C369.711 434.776 396.574 432.653 394.3 455.693C392.441 474.535 371.059 480.831 356.236 472.211C356.236 487.335 356.236 502.458 356.236 517.58C356.262 517.58 356.289 517.58 356.315 517.58C357.048 517.13 357.921 516.788 358.588 516.788C381.312 516.788 404.036 516.788 426.762 516.788C428.617 516.788 428.58 517.544 427.831 518.303C427.842 518.326 427.844 518.351 427.825 518.379C420 529.539 421.323 549.192 437.546 552.016C457.945 555.574 456.472 533.21 449.522 521.261ZM669.493 653.972C669.493 641.102 669.493 628.234 669.493 615.363C653.1 625.532 628.952 619.243 631.659 596.21C633.813 577.884 657.2 579.192 669.493 586.117C669.493 571.728 669.493 557.341 669.493 542.952C669.493 534.981 669.493 527.012 669.493 519.042C650.154 519.042 630.812 519.042 611.473 519.042C620.44 534.693 612.555 556.639 592.598 556.919C572.164 557.208 567.951 534.243 575.721 519.042C564.067 519.042 552.412 519.042 540.759 519.042C540.795 520.11 539.65 521.356 537.898 521.356C536.254 521.356 534.61 521.356 532.966 521.356C532.966 528.062 532.966 534.769 532.966 541.477C532.966 541.847 532.725 542.176 532.355 542.459C532.355 553.873 532.355 565.285 532.355 576.701C532.355 576.84 532.313 576.969 532.254 577.096C545.833 568.852 572.691 566.732 570.417 589.769C568.559 608.609 547.179 614.91 532.355 606.29C532.355 613.659 532.355 621.03 532.355 628.399C532.355 636.922 532.355 645.445 532.355 653.97C547.304 653.97 562.251 653.97 577.2 653.97C577.302 653.813 577.395 653.649 577.5 653.494C578.39 652.171 583.27 651.981 582.919 652.503C582.61 652.962 582.321 653.469 582.031 653.97C582.177 653.97 582.323 653.97 582.469 653.97C585.791 653.97 582.634 656.043 580.746 656.451C575.717 667.419 575.132 684.745 587.245 690.44C597.61 695.313 607.323 688.262 609.313 677.809C610.793 670.024 609.24 662.516 604.73 656.007C604.504 655.682 606.034 654.819 607.557 654.382C608.149 654.137 608.743 653.97 609.172 653.97C629.277 653.972 649.385 653.972 669.493 653.972ZM836.871 469.091C834.21 469.913 831.689 470.958 829.53 472.424C831.827 471.281 834.356 470.148 836.871 469.091ZM864.354 558.708C868.707 563.943 867.532 570.507 865.907 576.625C865.888 576.696 865.85 576.76 865.823 576.827C865.878 576.939 865.905 577.064 865.863 577.218C863.625 585.543 866.418 592.531 876.108 589.572C882.638 587.577 890.212 583.321 893.775 577.132C893.669 576.939 893.637 576.699 893.698 576.413C895.023 570.162 895.662 563.683 896.983 557.394C896.773 557.214 896.86 556.978 897.118 556.73C897.623 554.418 898.225 552.132 899.001 549.898C899.204 549.311 899.831 548.842 900.588 548.516C900.594 548.159 900.71 547.789 901.029 547.466C902.008 546.475 903.588 546.135 904.918 546.424C907.28 546.937 909.482 547.225 910.632 545.118C911.663 543.233 911.716 540.906 911.262 538.842C910.869 537.064 910.072 534.586 908.557 533.55C908.544 533.542 908.533 533.537 908.519 533.527C908.105 534.053 907.692 534.759 907.386 535.38C906.729 536.716 903.715 537.284 902.515 536.551C898.908 537.164 896.107 533.918 895.746 528.814C895.275 522.176 896.775 514.191 901.203 508.842C897.933 508.514 894.694 507.191 893.508 503.956C892.545 501.329 893.331 498.918 894.886 496.955C886.858 498.022 877.164 501.27 871.349 494.979C870.034 493.555 869.571 492.219 869.656 490.983C868.978 491.348 868.259 491.731 867.498 492.128C863.595 494.605 859.381 496.388 854.722 497.229C854.143 498.538 853.507 499.983 852.845 501.522C852.953 501.45 853.061 501.386 853.164 501.331C854.107 500.833 855.971 500.175 857.031 500.704C858.806 501.595 860.487 502.523 861.922 503.916C863.052 505.013 857.942 507.043 856.771 505.906C855.527 504.698 854.111 503.827 852.568 503.056C852.443 502.994 852.348 502.925 852.274 502.857C845.721 518.265 837.192 542.367 851.315 550.959C855.453 553.474 861.163 554.869 864.354 558.708ZM768.452 616.375C773.805 620.5 778.904 624.942 784.126 629.23C786.316 631.03 789.46 634.388 792.575 636.24C793.348 634.357 794.395 632.579 795.739 630.99C800.271 625.631 808.059 621.614 815.66 620.642C815.455 619.872 815.817 619.204 816.459 618.727C816.658 618.501 816.998 618.152 817.131 617.962C817.611 617.284 818.082 616.603 818.553 615.916C819.8 614.095 821.03 612.263 822.304 610.462C823.228 609.154 824.132 607.698 825.36 606.645C826.482 605.68 829.971 604.967 830.278 607.193C830.411 608.144 829.828 608.928 829.003 609.443C828.887 609.581 828.771 609.72 828.661 609.864C828.236 610.418 827.82 610.98 827.416 611.552C826.309 613.106 825.233 614.684 824.158 616.261C823.251 617.59 822.37 619.259 821.191 620.496C827.019 621.007 832.173 623.754 834.92 629.585C840.586 622.376 844.775 614.177 849.145 606.128C849.489 605.498 850.248 605.058 851.095 604.822C852.387 604.207 854.187 604.025 855.053 604.862C865.108 614.583 877.972 621.178 886.49 632.508C887.737 634.168 884.874 635.772 882.864 635.557C879.516 637.865 876.224 641.047 876.028 645.265C875.879 648.484 877.678 651.425 880.182 653.334C882.752 655.293 886.281 656.624 889.542 656.007C893.109 655.333 895.059 651.575 895.987 648.429C896.515 646.643 901.801 645.851 901.494 647.611C901.723 647.653 901.925 647.729 902.069 647.848C905.264 650.485 908.599 652.919 912.003 655.253C911.98 652.664 912.494 649.652 912.585 648.406C912.838 644.938 912.426 639.441 916.49 638.163C919.81 637.119 920.606 640.291 917.335 641.318C919.729 640.567 919.184 639.553 918.827 641.527C918.694 642.262 918.578 643 918.491 643.742C918.278 645.574 918.121 647.414 918.024 649.255C917.931 651.005 917.851 652.761 917.864 654.515C917.868 655.115 917.861 655.724 917.925 656.322C918.016 657.169 918.307 656.977 917.559 656.487C918.646 657.199 918.198 658.086 917.234 658.737C923.481 662.773 929.886 666.577 936.156 670.571C936.758 670.954 935.372 671.873 933.835 672.387C933.979 672.486 933.988 672.632 933.789 672.841C932.236 674.468 930.885 676.239 929.615 678.069C942.574 679.77 956.27 681.677 969.332 679.802C968.064 656.271 962.293 631.354 952.054 610.194C946.786 599.306 940.478 591.572 929.311 586.388C919.592 581.876 909.144 578.598 898.455 577.445C888.935 590.549 853.608 603.292 860.398 578.04C860.404 578.017 860.421 577.998 860.429 577.975C860.303 577.747 860.26 577.464 860.353 577.113C860.451 576.739 860.537 576.379 860.626 576.014C860.613 576.007 860.594 576.003 860.58 575.993C824.244 552.941 789.878 587.616 769.509 615.623C769.293 615.923 768.913 616.176 768.452 616.375ZM777.985 692.892C774.414 694.944 770.126 696.237 766.478 695.643C766.478 707.429 766.478 719.216 766.478 731.002C769.39 718.061 773.287 705.318 777.985 692.892ZM794.642 657.653C791.261 652.611 790.069 645.755 791.535 639.521C791.43 639.526 791.337 639.524 791.26 639.513C786.84 638.9 782.165 633.716 778.923 631.035C777.013 629.454 775.113 627.86 773.213 626.265C770.572 629.564 768.201 633.067 765.472 636.297C764.898 636.977 763.938 637.296 762.998 637.326C764.122 639.54 764.803 641.907 764.771 644.747C764.748 646.791 759.215 647.864 759.245 645.341C759.367 634.699 747.182 629.551 743.979 620.177C741.305 612.353 740.618 602.558 743.771 594.723C744.961 591.766 746.436 588.888 747.366 585.834C747.795 584.431 748.349 582.914 748.408 581.43C748.569 577.487 744.875 578.051 743.148 580.678C738.79 587.307 736.079 594.894 731.644 601.449C730.524 603.104 724.94 603.414 726.472 601.149C728.081 598.771 729.425 595.9 730.764 592.932C730.209 592.901 729.805 592.744 729.714 592.413C728.562 588.182 725.485 583.993 722.835 580.597C721.282 578.605 719.666 576.599 717.766 574.921C716.853 574.114 715.915 573.266 714.845 572.668C714.302 572.322 713.723 572.056 713.106 571.87C713.248 571.927 713.389 571.986 713.529 572.043C711.749 575.739 714.421 580.635 716.622 584.135C718.182 586.31 719.532 588.461 720.61 590.014C720.612 590.016 720.612 590.018 720.614 590.02C722.195 592.195 723.831 594.327 725.464 596.472C726.371 597.664 721.122 599.477 720.289 598.381C718.357 595.842 713.746 590.526 710.602 585.113C710.253 584.653 709.913 584.19 709.539 583.748C708.653 582.698 702.104 576.4 703.263 581.787C703.77 584.144 704.928 586.246 706.388 588.207C707.242 589.019 708.005 589.921 708.62 590.9C711.037 593.564 713.768 596.037 715.815 598.643C717.48 600.768 712.221 602.867 710.764 601.007C709.63 599.564 707.648 597.63 705.564 595.441C704.94 595.409 704.454 595.223 704.309 594.809C704.144 594.332 703.924 593.865 703.683 593.406C702.555 592.149 701.47 590.838 700.532 589.511C699.934 588.998 699.302 588.541 698.653 588.159C698.039 587.799 697.386 587.438 696.692 587.254C696.525 587.531 696.358 587.81 696.191 588.087C695.661 589.391 695.697 590.637 696.28 591.929C698.673 597.233 704.378 601.085 709.154 604.103C710.23 604.782 705.45 607.005 704.002 606.09C702.424 605.096 699.714 603.34 697.104 601.195C696.601 601.195 696.158 601.102 695.866 600.87C694.854 600.067 693.611 598.966 692.28 598.387C692.28 598.814 692.324 599.238 692.457 599.649C693.56 602.789 695.949 604.949 698.499 606.956C703.74 611.079 709.165 614.982 715.014 618.201C715.035 618.213 715.044 618.226 715.061 618.237C716.849 617.778 718.702 617.461 720.598 617.273C741.394 615.223 744.006 636.366 735.838 650.521C744.642 650.521 753.442 650.521 762.244 650.521C763.668 649.813 765.804 649.792 766.341 650.979C766.926 651.292 767.298 651.859 766.865 652.581C766.831 652.638 766.77 652.672 766.732 652.725C766.669 652.879 766.586 653.029 766.48 653.173C766.48 665.74 766.48 678.308 766.48 690.874C770.088 695.102 775.732 692.653 778.606 688.69C778.947 688.219 779.458 687.892 780.02 687.653C781.762 683.289 783.581 678.959 785.515 674.688C787.15 671.076 789.976 661.066 794.642 657.653ZM795.749 659.363C795.813 659.363 795.867 659.363 795.929 659.363C795.927 659.359 795.924 659.356 795.92 659.352C795.863 659.354 795.802 659.363 795.749 659.363ZM887.012 722.479C886.556 722.737 886.025 722.934 885.461 722.999C877.103 723.967 867.708 718.648 861.366 713.705C856.376 709.815 851.584 703.671 858.04 700.1C854.986 695.785 857.741 692.98 861.915 691.201C861.626 690.316 861.471 689.396 861.558 688.422C862.053 682.904 866.585 682.664 871.196 684.086C870.41 681.083 871.788 678.471 877.162 676.953C883.054 675.288 889.039 680.366 892.99 683.988C896.978 687.644 903.979 697.162 909.952 697.156C910.123 697.156 910.271 697.173 910.423 697.188C917.437 689.808 921.752 680.707 928.821 673.3C929.134 672.972 929.983 672.678 930.9 672.478C920.345 665.762 909.411 659.582 899.531 651.886C894.829 659.075 884.742 661.615 876.962 656.77C873.337 654.511 870.303 650.933 870.512 646.423C870.784 640.603 875.683 636.381 880.292 633.422C872.602 623.953 861.856 617.732 852.752 609.731C848.232 618.103 843.671 626.483 837.395 633.697C837.118 634.016 836.723 634.251 836.281 634.416C835.631 636.161 831.269 637.064 830.836 635.176C827.296 619.688 805.739 620.925 799.223 633.744C794.316 643.397 796.577 663.422 811.195 661.537C813.695 661.214 813.813 662.628 812.809 663.731C807.44 673.023 801.493 681.964 796.079 691.222C796.055 691.264 796.043 691.3 796.013 691.343C796.001 691.358 795.99 691.376 795.977 691.391C795.946 691.433 795.899 691.474 795.859 691.516C803.006 698.805 812.102 703.682 820.39 709.553C826.256 702.754 834.622 696.271 843.663 701.288C847.695 703.526 851.245 708.202 850.844 713.006C850.461 717.589 847.908 721.158 844.713 724.248C844.728 724.381 844.724 724.525 844.69 724.686C844.889 723.739 845.539 724.819 846.717 725.495C848.113 726.294 849.525 727.067 850.949 727.815C854.703 729.783 858.49 731.683 862.291 733.561C865.981 735.385 871.063 737.004 875.013 739.337C878.603 733.439 882.995 728.101 887.012 722.479ZM957.384 683.566C947.424 683.697 937.339 682.42 927.58 681.138C926.325 683.084 925.091 685.051 923.758 686.949C922.24 689.111 920.623 691.148 918.914 693.103C919.765 693.308 920.425 693.853 920.457 694.834C920.759 704.348 928.356 705.07 935.968 706.723C941.887 708.008 946.777 710.459 949.207 716.273C950.196 718.642 944.738 720.216 943.707 717.746C940.488 710.039 931.433 710.859 924.691 708.669C918.755 706.742 915.753 702.965 915.053 697.2C914.077 698.141 913.064 699.054 912.016 699.944C911.57 700.671 910.679 701.256 909.485 701.258C908.747 701.258 908.031 701.178 907.325 701.061C907.086 701.045 906.904 701.009 906.797 700.95C898.295 699.177 892.037 689.42 885.573 684.485C883.646 683.014 881.179 680.895 878.616 680.825C873.637 680.686 878.308 686.313 879.43 687.49C883.418 691.674 888.136 694.999 892.519 698.739C894.962 700.825 890.186 703.572 888.288 701.951C886.163 700.138 881.251 696.545 877.202 692.577C876.826 692.513 876.475 692.38 876.18 692.144C873.872 690.286 871.161 688.616 868.274 687.843C867.934 687.752 867.539 687.67 867.158 687.642C867.15 687.737 867.143 687.868 867.148 688.069C867.192 689.546 867.716 690.62 868.616 691.757C872.87 697.124 878.958 701.812 884.931 705.13C887.701 706.67 882.959 709.673 880.725 708.43C876.103 705.861 871.742 702.458 867.912 698.826C866.245 697.245 864.2 695.39 862.881 693.249C858.052 697.517 875.996 707.982 878.593 709.979C879.561 710.725 874.694 712.885 873.424 711.911C869.21 708.667 864.181 706.336 860.301 702.649C858.631 705.681 866.182 711.459 868.046 712.729C871.666 715.195 876.987 718.659 881.981 719.789C883.158 719.119 884.96 718.549 885.791 718.781C892.226 720.588 898.745 718.823 904.728 722.188C909.615 724.937 913.713 730.207 917.572 734.189C926.327 743.223 945.173 758.464 955.725 742.078C966.435 725.448 958.576 701.92 957.384 683.566ZM93.9693 481.308C93.0012 481.97 92.5703 483.396 93.675 484.155C94.8596 484.97 96.5224 484.575 97.6196 483.825C104.909 478.842 97.6386 472.301 92.612 469.237C90.5429 467.974 85.7175 470.795 88.3732 472.414C90.6397 473.796 98.0752 478.502 93.9693 481.308ZM99.4496 465.072C99.0016 464.398 98.2518 463.513 98.2024 462.659C98.1227 461.294 96.9382 460.774 95.6644 460.873C94.6564 460.951 92.5532 461.74 92.631 463.086C92.7316 464.789 93.4814 466.091 94.4116 467.49C95.784 469.552 101.033 467.45 99.4496 465.072ZM76.826 491.276C75.801 490.97 74.6221 491.27 73.6066 491.667C73.5439 491.657 73.4927 491.653 73.3826 491.625C72.8852 491.5 72.4714 491.222 72.0614 490.928C71.1407 490.268 70.5598 489.294 70.1403 488.267C69.5291 486.769 64.1399 488.519 64.641 489.74C66.6741 494.719 71.8317 494.873 76.2034 492.897C76.7577 492.648 78.0333 491.636 76.826 491.276ZM79.0147 476.186C77.9005 475.309 77.2 473.98 76.5792 472.739C75.9946 471.568 74.5272 471.549 73.394 471.853C72.6688 472.046 70.5067 473.067 71.08 474.214C72.0367 476.129 73.001 477.76 74.7057 479.1C76.3515 480.395 81.3325 478.01 79.0147 476.186ZM65.8294 469.516C66.8981 469.362 68.5306 468.895 68.99 467.777C69.6031 466.283 70.6624 465.064 72.3347 465.028C73.5553 465.002 75.1821 464.599 75.9832 463.593C76.79 462.581 75.2998 462.213 74.5595 462.23C70.1308 462.327 65.2979 464.227 63.5135 468.568C63.0598 469.681 65.3681 469.584 65.8294 469.516ZM201.54 693.819C201.7 693.568 201.326 693.426 200.711 693.388C199.697 687.025 198.602 680.681 197.375 674.361C196.641 670.578 195.361 655.062 187.952 659.87C184.818 661.903 189.46 663.342 191.504 662.017C188.07 664.244 187.873 661.028 189.135 664.542C189.853 666.537 190.304 668.64 190.788 670.702C192.206 676.746 193.207 682.894 194.224 689.014C194.6 691.284 194.934 693.561 195.291 695.833C183.922 711.949 157.235 714.155 139.478 715.55C119.837 717.093 99.1174 716.613 79.8614 712.099C78.5781 711.799 74.1817 713.709 75.1518 714.261C74.9695 714.498 74.8556 714.758 74.8556 715.038C74.8556 727.41 74.8556 739.783 74.8556 752.156C74.8556 754.668 80.3796 753.576 80.3796 751.556C80.3796 739.514 80.3796 727.469 80.3796 715.425C102.1 719.762 125.406 719.696 147.191 716.995C162.759 715.064 183.566 711.862 195.999 700.364C198.317 715.709 200.251 731.122 202.129 746.522C202.404 748.777 207.924 747.464 207.628 745.049C205.58 728.261 203.543 711.423 200.912 694.694C201.117 694.394 201.348 694.122 201.54 693.819ZM252.121 86.4646C250.694 85.1757 245.542 87.2809 247.011 88.6059C249.954 91.2596 261.298 108.898 252.156 108.718C250.111 108.678 246.284 111.725 250.005 111.799C255.751 111.913 261.338 109.652 261.041 103.158C260.774 97.3018 256.381 90.3067 252.121 86.4646ZM236.941 117.416C234.868 117.38 233.08 116.548 231.863 114.827C230.863 113.407 225.855 115.582 226.364 116.3C228.053 118.691 230.513 119.724 233.405 119.773C234.73 119.796 236.178 119.475 237.294 118.731C238.143 118.164 238.036 117.433 236.941 117.416ZM232.621 96.6469C231.03 94.1317 230.394 91.2672 230.348 88.3135C230.331 87.2315 224.821 88.1104 224.849 89.7866C224.895 92.7384 225.529 95.6048 227.121 98.12C228.042 99.5741 233.154 97.486 232.621 96.6469ZM223.308 77.0264C223.752 76.8765 225.734 75.9027 224.87 75.1718C223.974 74.4163 222.218 75.0029 221.282 75.318C218.602 76.2254 216.02 77.5693 215.02 80.3807C214.636 81.4589 216.84 81.2767 217.3 81.2064C218.254 81.0584 220.098 80.6123 220.479 79.5397C220.601 79.198 220.722 78.8298 220.918 78.5242C221.142 78.1711 221.407 77.9015 221.605 77.7478C221.687 77.6927 221.709 77.6737 221.736 77.6548C221.823 77.6092 221.947 77.5466 222.011 77.5105C222.436 77.3302 222.873 77.1726 223.308 77.0264ZM244.781 72.1061C245.605 73.2375 247.419 73.1312 248.534 72.575C249.175 72.2542 249.821 71.9391 250.481 71.66C250.795 71.529 251.096 71.4683 251.616 71.4512C252.856 71.4095 254.487 70.5401 254.631 69.1695C254.781 67.7401 253.196 67.2219 252.061 67.2617C249.912 67.3377 247.945 68.2242 246.053 69.1695C245.033 69.6782 243.948 70.9596 244.781 72.1061ZM254.39 82.9718C255.779 85.711 257.418 88.2889 259.12 90.842C260.035 92.2126 265.379 90.4643 264.251 88.7748C262.676 86.4134 261.176 84.0291 259.891 81.4969C259.012 79.7656 253.693 81.5956 254.39 82.9718ZM572.465 276.32C571.203 276.143 569.565 276.542 568.576 277.362C565.723 279.729 563.547 282.506 561.884 285.817C561.195 287.191 559.83 289.298 560.882 290.735C561.767 291.942 562.797 291.348 563.98 291.766C565.197 292.197 566.771 291.775 567.856 291.176C568.46 290.841 569.648 289.752 568.414 289.317C567.699 289.065 567.014 288.966 566.277 288.966C566.055 288.324 566.1 287.715 566.435 287.138C566.706 286.415 567.029 285.712 567.355 285.012C568.637 282.263 570.584 279.892 572.906 277.965C573.75 277.269 573.595 276.477 572.465 276.32ZM560.347 271.115C560.343 271.12 560.337 271.126 560.33 271.132C560.339 271.124 560.341 271.122 560.347 271.115ZM560.347 271.115C560.668 270.801 560.066 271.236 560.347 271.115V271.115ZM562.79 273.691C564.073 273.005 565.06 272.212 565.907 271.022C566.638 269.993 567.046 268.708 567.446 267.525C567.879 266.251 565.717 266.022 565.003 266.096C563.752 266.229 562.346 266.84 561.917 268.108C561.66 268.863 561.376 269.587 560.988 270.285C560.935 270.378 560.504 270.98 560.647 270.813C560.552 270.919 560.451 271.018 560.349 271.115C560.387 271.098 560.436 271.075 560.512 271.035C559.755 271.439 558.225 272.459 559.111 273.493C559.918 274.435 561.827 274.205 562.79 273.691ZM586.454 283.451C587.781 283.613 589.411 283.019 590.036 281.766C590.958 279.915 591.666 278.032 591.708 275.94C591.765 273.053 586.184 273.877 586.135 276.36C586.099 278.142 585.56 279.564 584.776 281.138C584.159 282.375 585.32 283.317 586.454 283.451ZM588.659 265.94C591.537 265.984 593.715 267.191 594.502 270.071C594.857 271.371 600.355 269.885 600.002 268.598C599.001 264.934 595.74 263.691 592.211 263.637C590.89 263.618 589.44 263.954 588.322 264.68C587.464 265.236 587.577 265.925 588.659 265.94ZM572.883 254.19C571.645 253.552 570.075 253.789 568.954 254.581C568.149 255.146 567.37 256.57 568.599 257.204C569.884 257.867 570.563 258.579 571.241 259.896C571.835 261.048 574.09 260.589 574.946 260.194C576.032 259.693 576.907 258.74 576.3 257.559C575.523 256.05 574.39 254.968 572.883 254.19ZM590.715 295.523C589.43 295.5 587.919 295.879 586.826 296.565C585.945 297.117 585.136 297.037 583.899 297.037C582.585 297.037 581.138 297.4 580.009 298.08C579.134 298.607 579.257 299.198 580.309 299.198C584.066 299.196 587.773 298.67 591.017 296.641C591.886 296.096 591.771 295.543 590.715 295.523Z" fill="black"/>
</svg>
